<svg width="192" height="192" xmlns="http://www.w3.org/2000/svg"><g fill="none" fill-rule="evenodd"><path d="M76 93.927c0-11.045 8.955-20 20-20 11.046 0 20 8.955 20 20 0 11.047-8.954 20-20 20-11.045 0-20-8.953-20-20zM48.264 165.29a47.72 47.72 0 019.008-23.435c.008-.01.014-.022.021-.033a48.18 48.18 0 014.773-5.568 47.99 47.99 0 0118.992-11.67c.308-.1.615-.205.928-.3A47.97 47.97 0 0196 122.2a48 48 0 0114.035 2.09c.313.095.618.2.926.3a47.992 47.992 0 0118.977 11.664 48.163 48.163 0 014.77 5.568l.024.033a47.827 47.827 0 014.776 8.063 47.695 47.695 0 014.231 15.373 4.022 4.022 0 01-2.298 4.051 3.822 3.822 0 01-1.323.36c-1.355.1-2.72.153-4.1.153h-7.725c-6.016 0-11.69-3.23-14.394-8.606-3.15-6.26-9.392-10.146-15.454-10.885A20.1 20.1 0 0096 150.2c-.822 0-1.63.065-2.426.161-6.07.736-12.086 4.2-15.271 10.524-2.722 5.403-8.08 8.97-14.13 8.97H56c-.684 0-1.367-.014-2.045-.039-.236-.009-.47-.027-.706-.039-.44-.022-.883-.042-1.32-.074l-.062-.006c-2.216-.176-3.83-2.19-3.604-4.407z" fill="#8C21D9"/><path d="M156.738 61.83C148.287 36.373 124.297 18 96 18c-28.299 0-52.291 18.375-60.741 43.839C14.603 70.083 0 90.257 0 113.855a55.728 55.728 0 007.51 28 56.288 56.288 0 0013.548 15.747c7.618 6.09 16.853 10.235 26.965 11.678 1.269.18 2.551.32 3.845.418-2.218-.176-3.83-2.192-3.606-4.408a47.727 47.727 0 019.008-23.435l.023-.032c-.429.019-.859.032-1.293.032-9.983 0-18.74-5.228-23.697-13.092A27.859 27.859 0 0128 113.855a27.87 27.87 0 015.753-16.995C38.87 90.172 46.929 85.855 56 85.855c1.445 0 2.863.11 4.249.32a35.847 35.847 0 017.9-26.984C74.752 51.14 84.775 46 96 46c11.227 0 21.252 5.14 27.854 13.195a35.85 35.85 0 017.897 26.983 28.304 28.304 0 014.266-.323c9.064 0 17.117 4.31 22.234 10.988a27.871 27.871 0 015.766 17.012c0 4.665-1.145 9.06-3.165 12.929-.65 1.246-.651 2.737.079 3.938a75.495 75.495 0 015.584 11.133 75.33 75.33 0 013.003 9.086c.8 3.06 4.593 4.063 6.788 1.788a56.236 56.236 0 008.202-10.874 55.728 55.728 0 007.509-28c0-23.605-14.612-43.785-35.279-52.024" fill="#A667E6"/></g></svg>